<svg width="47" height="28" viewBox="0 0 47 28" fill="none" xmlns="http://www.w3.org/2000/svg">
<path d="M19.4633 23.3995C12.0616 25.7036 0.106843 23.3489 0.000659127 13.0876C-0.105525 2.8262 12.6532 8.93879 12.6532 8.93879L19.4633 23.3995Z" fill="#FFC250"/>
<path d="M3.59949 7.33031C8.76529 6.44413 12.6886 13.2971 17.0293 20.4456C21.37 27.5942 32.6731 30.4277 39.8954 24.4161C47.1176 18.4045 50.1742 7.87582 41.3065 1.59563C32.4389 -4.68455 26.9033 9.57344 19.2692 9.96536C11.6353 10.3573 11.5795 4.67633 3.59949 7.33031Z" fill="#FFD064"/>
<ellipse cx="40.5584" cy="13.407" rx="2.26712" ry="2.26965" fill="#FFE19D"/>
<ellipse cx="36.213" cy="15.1094" rx="1.70034" ry="1.70225" fill="#FFE19D"/>
<ellipse cx="39.2358" cy="17.3789" rx="1.32249" ry="1.32396" fill="#FFE19D"/>
</svg>
